<svg xmlns="http://www.w3.org/2000/svg" xmlns:xlink="http://www.w3.org/1999/xlink" width="36" height="36" viewBox="0 0 36 36"><defs><style>.a{fill:none;}.b{fill:#fff;}.c{fill:#514334;}.d{fill:url(#a);}.e{fill:#ffd56c;}</style><linearGradient id="a" y1="0.5" x2="1" y2="0.5" gradientUnits="objectBoundingBox"><stop offset="0" stop-color="#fff"/><stop offset="0.15" stop-color="#fffefa"/><stop offset="0.32" stop-color="#fffaed"/><stop offset="0.49" stop-color="#fff4d7"/><stop offset="0.67" stop-color="#ffebb8"/><stop offset="0.86" stop-color="#ffdf90"/><stop offset="1" stop-color="#ffd56c"/></linearGradient></defs><g transform="translate(-679 -3664)"><rect class="a" width="36" height="36" transform="translate(679 3664)"/><path class="b" d="M679.5,3690.812v-21.624a.711.711,0,0,1,.727-.688h30.546a.711.711,0,0,1,.727.688v21.624a.711.711,0,0,1-.727.688H680.227A.711.711,0,0,1,679.5,3690.812Z"/><path class="c" d="M710.5,3669.5v21h-30v-21h30m.273-1H680.227a.711.711,0,0,0-.727.688v21.624a.711.711,0,0,0,.727.688h30.546a.711.711,0,0,0,.727-.688v-21.624a.711.711,0,0,0-.727-.688Z"/><rect class="b" width="2" height="2" transform="translate(698 3673)"/><path class="c" d="M700.5,3675.5h-3v-3h3Zm-2-1h1v-1h-1Z"/><rect class="b" width="2" height="2" transform="translate(702 3673)"/><path class="c" d="M704.5,3675.5h-3v-3h3Zm-2-1h1v-1h-1Z"/><rect class="b" width="2" height="2" transform="translate(706 3673)"/><path class="c" d="M708.5,3675.5h-3v-3h3Zm-2-1h1v-1h-1Z"/><rect class="b" width="12" height="15" transform="translate(683 3673)"/><path class="c" d="M695.5,3688.5h-13v-16h13Zm-12-1h11v-14h-11Z"/><path class="d" d="M.97,0H31.03A.97.97,0,0,1,32,.97V5a0,0,0,0,1,0,0H0A0,0,0,0,1,0,5V.97A.97.97,0,0,1,.97,0Z" transform="translate(679.5 3664.5)"/><path class="c" d="M710.5,3665.5v3H680.493l-.023-3H710.5m.03-1H680.47a.974.974,0,0,0-.97.97v4.03h32v-4.03a.974.974,0,0,0-.97-.97Z"/><circle class="c" cx="0.5" cy="0.5" r="0.5" transform="translate(682.5 3666.5)"/><circle class="c" cx="0.5" cy="0.5" r="0.5" transform="translate(684.5 3666.5)"/><circle class="c" cx="0.5" cy="0.5" r="0.5" transform="translate(686.5 3666.5)"/><path class="b" d="M693.966,3687.677q-1.66-2.787-3.319-5.574a.162.162,0,0,0-.3,0q-1.66,2.787-3.319,5.574a.2.2,0,0,0,.016.239.15.15,0,0,0,.135.084h6.638A.221.221,0,0,0,693.966,3687.677Z"/><path class="c" d="M693.815,3688.5h-6.638a.645.645,0,0,1-.544-.3.693.693,0,0,1-.037-.782l3.319-5.575a.681.681,0,0,1,1.161,0l3.319,5.574a.723.723,0,0,1,0,.725A.679.679,0,0,1,693.815,3688.5Zm-6.1-1h5.565l-2.782-4.674Z"/><path class="e" d="M684.015,3688h6.969L687.5,3683Z"/><path class="c" d="M684.015,3688.5h6.97a.5.5,0,0,0,.431-.752l-3.484-5.009a.509.509,0,0,0-.864,0l-3.484,5.009c-.369.53.5,1.03.863.505l3.485-5.009h-.864l3.485,5.009.432-.753h-6.97A.5.5,0,0,0,684.015,3688.5Z"/><circle class="b" cx="0.5" cy="0.5" r="0.5" transform="translate(686 3677)"/><path class="c" d="M686.5,3678.5a1,1,0,1,1,.707-.292A1,1,0,0,1,686.5,3678.5Zm.354-1.353-.354.354h0Z"/><path class="e" d="M711.5,3699.5l-3-2.667-3,2.667v-8h6Z"/><path class="c" d="M710.5,3692.5v4.773l-1.336-1.187-.664-.591-.664.591-1.336,1.187V3692.5h4m1-1h-6v8l3-2.667,3,2.667v-8Z"/><path class="d" d="M709.035,3682.81h0a.617.617,0,0,0,.935.163h0a.615.615,0,0,1,1.006.361h0a.612.612,0,0,0,.822.468h0a.61.61,0,0,1,.82.678h0a.606.606,0,0,0,.61.718h0a.6.6,0,0,1,.535.914h0a.6.6,0,0,0,.325.88h0a.6.6,0,0,1,.186,1.039h0a.6.6,0,0,0,0,.938h0a.6.6,0,0,1-.186,1.039h0a.6.6,0,0,0-.325.88h0a.6.6,0,0,1-.535.914h0a.606.606,0,0,0-.61.718h0a.61.61,0,0,1-.82.678h0a.612.612,0,0,0-.822.468h0a.615.615,0,0,1-1.006.361h0a.617.617,0,0,0-.935.163h0a.617.617,0,0,1-1.07,0h0a.617.617,0,0,0-.935-.163h0a.615.615,0,0,1-1.006-.361h0a.612.612,0,0,0-.822-.468h0a.61.61,0,0,1-.82-.678h0a.606.606,0,0,0-.61-.718h0a.6.6,0,0,1-.535-.914h0a.6.6,0,0,0-.325-.88h0a.6.6,0,0,1-.186-1.039h0a.6.6,0,0,0,0-.938h0a.6.6,0,0,1,.186-1.039h0a.6.6,0,0,0,.325-.88h0a.6.6,0,0,1,.535-.914h0a.606.606,0,0,0,.61-.718h0a.61.61,0,0,1,.82-.678h0a.612.612,0,0,0,.822-.468h0a.615.615,0,0,1,1.006-.361h0a.617.617,0,0,0,.935-.163h0A.617.617,0,0,1,709.035,3682.81Z"/><path class="c" d="M708.5,3683.716a4.659,4.659,0,0,1,3.08,1.126h.046a2.058,2.058,0,0,1,1.146,2.125,1,1,0,0,1,.276,1.533,1,1,0,0,1-.276,1.533,1.013,1.013,0,0,1-.8,1.356,1.6,1.6,0,0,0-.347.769h-.045a1.617,1.617,0,0,1-2.009.722,1.621,1.621,0,0,1-2.142,0,1.617,1.617,0,0,1-2.009-.722h-.045a1.607,1.607,0,0,0-1.081-1.272,1.587,1.587,0,0,0-.066-.853,1,1,0,0,1-.276-1.533,1,1,0,0,1,.276-1.533,1.013,1.013,0,0,1,.8-1.356,1.6,1.6,0,0,0,.347-.769h.045a1.617,1.617,0,0,1,2.009-.722,1.622,1.622,0,0,0,1.071-.4m0-1.216a.61.61,0,0,0-.535.31.617.617,0,0,1-.935.163.615.615,0,0,0-1.006.36.61.61,0,0,1-.6.509.619.619,0,0,1-.218-.04.618.618,0,0,0-.22-.041.608.608,0,0,0-.6.719.606.606,0,0,1-.6.718h-.019a.6.6,0,0,0-.525.914.6.6,0,0,1-.325.88.6.6,0,0,0-.186,1.039.6.6,0,0,1,0,.938.6.6,0,0,0,.186,1.039.6.6,0,0,1,.325.88.6.6,0,0,0,.525.914h.019a.606.606,0,0,1,.6.718.608.608,0,0,0,.6.719.618.618,0,0,0,.22-.041.619.619,0,0,1,.218-.04.61.61,0,0,1,.6.509.615.615,0,0,0,1.006.36.617.617,0,0,1,.935.163.617.617,0,0,0,1.07,0,.617.617,0,0,1,.935-.163.615.615,0,0,0,1.006-.36.61.61,0,0,1,.6-.509.619.619,0,0,1,.218.04.618.618,0,0,0,.22.041.608.608,0,0,0,.6-.719.606.606,0,0,1,.6-.718h.019a.6.6,0,0,0,.525-.914.6.6,0,0,1,.325-.88h0a.6.6,0,0,0,.186-1.039.6.6,0,0,1,0-.938.6.6,0,0,0-.186-1.039h0a.6.6,0,0,1-.325-.88.6.6,0,0,0-.525-.914h-.019a.606.606,0,0,1-.6-.718.608.608,0,0,0-.6-.719.618.618,0,0,0-.22.041.619.619,0,0,1-.218.04.61.61,0,0,1-.6-.509.615.615,0,0,0-1.006-.36.617.617,0,0,1-.935-.163.61.61,0,0,0-.535-.31Z"/></g></svg>