<svg xmlns="http://www.w3.org/2000/svg" xmlns:xlink="http://www.w3.org/1999/xlink" width="36" height="36" viewBox="0 0 36 36"><defs><style>.a{fill:none;}.b{fill:#ffd56c;}.c{fill:#514334;}.d{fill:url(#a);}.e{fill:url(#b);}.f{fill:url(#c);}.g{fill:url(#d);}</style><linearGradient id="a" x1="0.446" y1="0.109" x2="0.982" y2="1.237" gradientUnits="objectBoundingBox"><stop offset="0" stop-color="#fff"/><stop offset="0.15" stop-color="#fffefa"/><stop offset="0.32" stop-color="#fffaed"/><stop offset="0.49" stop-color="#fff4d7"/><stop offset="0.67" stop-color="#ffebb8"/><stop offset="0.86" stop-color="#ffdf90"/><stop offset="1" stop-color="#ffd56c"/></linearGradient><linearGradient id="b" x1="-0.591" y1="-0.781" x2="0.737" y2="1.22" xlink:href="#a"/><linearGradient id="c" x1="-0.176" y1="-0.006" x2="1.274" y2="1.392" xlink:href="#a"/><linearGradient id="d" x1="-0.684" y1="-0.392" x2="0.968" y2="0.983" xlink:href="#a"/></defs><g transform="translate(-615 -3708)"><rect class="a" width="36" height="36" transform="translate(615 3708)"/><circle class="b" cx="17.5" cy="17.5" r="17.5" transform="translate(615.5 3708.5)"/><path class="c" d="M633,3709.5a16.5,16.5,0,1,1-16.5,16.5,16.519,16.519,0,0,1,16.5-16.5m0-1a17.5,17.5,0,1,0,17.5,17.5,17.5,17.5,0,0,0-17.5-17.5Z"/><path class="d" d="M635.344,3719.014c.555-.051,1.059-.09,1.561-.145a.7.7,0,0,0,.7-.62c.056-.426-.3-.726-.816-.705-1.266.052-2.532.148-3.8.148-1.3,0-2.6-.091-3.892-.145-.533-.022-.837.184-.876.6s.236.669.774.733a7.046,7.046,0,0,0,.968.087.509.509,0,0,1,.561.412c.671,1.877,1.366,3.744,2.037,5.62a1.1,1.1,0,0,1,.047.663c-1.011,3.083-2.041,6.158-3.068,9.235-.014.043-.038.083-.1.224l-5.412-16.1c.6-.064,1.15-.1,1.7-.189a.606.606,0,0,0,.557-.724.624.624,0,0,0-.718-.571c-.078,0-.155.012-.232.015l-4.031.149c-.166.006-.333,0-.635,0a14.737,14.737,0,0,1,9.294-6.351,14.959,14.959,0,0,1,13.3,3.452c-.278.05-.469.072-.654.119a2.7,2.7,0,0,0-1.876,3.387,12.639,12.639,0,0,0,1.22,2.53,9.39,9.39,0,0,1,1.343,3.572,8.683,8.683,0,0,1-.368,3.526c-.692,2.307-1.425,4.6-2.142,6.9-.008.028-.035.049-.083.113C638.914,3729.637,637.136,3724.347,635.344,3719.014Z"/><path class="c" d="M633.357,3711.986a13.54,13.54,0,0,1,7.841,2.5,3.726,3.726,0,0,0-1.1,1.219,3.668,3.668,0,0,0-.319,2.892,12.965,12.965,0,0,0,1.255,2.642l.053.093a8.481,8.481,0,0,1,1.218,3.191,7.658,7.658,0,0,1-.331,3.124c-.415,1.382-.845,2.761-1.277,4.138l-2.363-7.03L636.7,3719.9c.107-.01.214-.021.32-.033a1.694,1.694,0,0,0,1.584-1.483,1.558,1.558,0,0,0-.371-1.251,1.8,1.8,0,0,0-1.385-.586l-.092,0c-.4.016-.809.037-1.214.059-.838.043-1.7.088-2.548.088-.894,0-1.815-.046-2.706-.09-.38-.019-.759-.039-1.139-.054l-.117,0a1.668,1.668,0,0,0-1.772,1.332,1.611,1.611,0,0,0-1.638-1.339l-.1,0-.119.007-.1.006-2.529.095a13.3,13.3,0,0,1,7.4-4.317,15.516,15.516,0,0,1,3.191-.346m-6.1,6.566a1.714,1.714,0,0,0,1.625,1.322l.2.025c.182.024.381.05.592.062q.467,1.3.943,2.6.507,1.388,1.007,2.778a.4.4,0,0,1,.019.073q-1.086,3.308-2.192,6.607l-.521-1.551-3.555-10.576c.167-.02.334-.042.5-.069a1.6,1.6,0,0,0,1.377-1.27m6.1-7.566a16.371,16.371,0,0,0-3.4.368,14.732,14.732,0,0,0-9.294,6.35l.442,0c.069,0,.131,0,.193,0q2.016-.072,4.031-.15c.077,0,.154-.01.231-.014h.055a.615.615,0,0,1,.664.572.606.606,0,0,1-.557.724c-.545.086-1.1.125-1.7.188l5.412,16.1c.066-.141.09-.181.1-.224,1.027-3.077,2.057-6.152,3.068-9.235a1.1,1.1,0,0,0-.047-.663c-.671-1.876-1.366-3.743-2.037-5.62a.507.507,0,0,0-.54-.412h-.072a7.925,7.925,0,0,1-.917-.088c-.538-.064-.812-.327-.774-.733s.315-.6.8-.6l.075,0c1.3.054,2.591.145,3.887.145h.005c1.266,0,2.532-.1,3.8-.148h.051c.49,0,.819.294.765.706a.7.7,0,0,1-.7.62c-.5.055-1.006.094-1.561.145,1.792,5.333,3.57,10.622,5.358,15.94.048-.064.075-.086.083-.113.717-2.3,1.45-4.595,2.142-6.9a8.683,8.683,0,0,0,.368-3.526,9.375,9.375,0,0,0-1.344-3.572,12.691,12.691,0,0,1-1.219-2.53,2.7,2.7,0,0,1,1.876-3.387c.185-.047.376-.069.654-.119a15.127,15.127,0,0,0-9.905-3.819Z"/><path class="e" d="M633.471,3727.462l4.664,12.777a15.178,15.178,0,0,1-9.141.23Z"/><path class="c" d="M633.5,3730.454l3.333,9.132a14.106,14.106,0,0,1-3.608.477,14.447,14.447,0,0,1-2.927-.307l3.2-9.3m-.028-2.992c-1.507,4.377-2.984,8.668-4.477,13.007a15.734,15.734,0,0,0,4.23.594,15.273,15.273,0,0,0,4.911-.824l-4.664-12.777Z"/><path class="f" d="M626.546,3739.494a15,15,0,0,1-7.105-19.462Z"/><path class="c" d="M619.484,3723.065l5.133,14.062a14.072,14.072,0,0,1-5.133-14.062m-.043-3.033a15,15,0,0,0,7.105,19.462l-7.105-19.462Z"/><path class="g" d="M646.553,3719.126a14.978,14.978,0,0,1-5.672,19.788c.633-1.837,1.252-3.642,1.878-5.445q1.475-4.242,2.957-8.482C646.405,3723.017,646.519,3722.251,646.553,3719.126Z"/><path class="c" d="M647.089,3723.975a13.977,13.977,0,0,1-4.233,12.274q.424-1.23.848-2.451,1.473-4.242,2.956-8.481c.176-.5.316-.932.429-1.342m-.536-4.849c-.034,3.125-.148,3.892-.837,5.861q-1.482,4.239-2.957,8.482c-.626,1.8-1.245,3.608-1.878,5.445a14.978,14.978,0,0,0,5.672-19.788Z"/></g></svg>