<svg xmlns="http://www.w3.org/2000/svg" xmlns:xlink="http://www.w3.org/1999/xlink" width="36" height="36" viewBox="0 0 36 36"><defs><style>.a{fill:none;}.b{fill:#fff;}.c{fill:#514334;}.d{fill:#ffd56c;}.e{fill:url(#a);}</style><linearGradient id="a" y1="0.5" x2="1" y2="0.5" gradientUnits="objectBoundingBox"><stop offset="0" stop-color="#fff"/><stop offset="0.15" stop-color="#fffefa"/><stop offset="0.32" stop-color="#fffaed"/><stop offset="0.49" stop-color="#fff4d7"/><stop offset="0.67" stop-color="#ffebb8"/><stop offset="0.86" stop-color="#ffdf90"/><stop offset="1" stop-color="#ffd56c"/></linearGradient></defs><g transform="translate(-576 -3708)"><rect class="a" width="36" height="36" transform="translate(576 3708)"/><path class="b" d="M576,3742.125v-26.25a.851.851,0,0,1,.818-.875h34.364a.851.851,0,0,1,.818.875v26.25a.851.851,0,0,1-.818.875H576.818A.851.851,0,0,1,576,3742.125Z"/><path class="c" d="M610.889,3716.111v25.778H577.111v-25.778h33.778m.293-1.111H576.818a.851.851,0,0,0-.818.875v26.25a.851.851,0,0,0,.818.875h34.364a.851.851,0,0,0,.818-.875v-26.25a.851.851,0,0,0-.818-.875Z"/><path class="d" d="M1,0H35a1,1,0,0,1,1,1V7a0,0,0,0,1,0,0H0A0,0,0,0,1,0,7V1A1,1,0,0,1,1,0Z" transform="translate(576 3709)"/><path class="c" d="M610.971,3710.029v4.942H577.024l-.024-4.942h33.971M611,3709H577a1,1,0,0,0-1,1v6h36v-6a1,1,0,0,0-1-1Z"/><circle class="c" cx="0.5" cy="0.5" r="0.5" transform="translate(580 3712)"/><circle class="c" cx="0.5" cy="0.5" r="0.5" transform="translate(582 3712)"/><circle class="c" cx="0.5" cy="0.5" r="0.5" transform="translate(584 3712)"/><path class="c" d="M603,3730h-1v1h1v-1Z"/><path class="c" d="M601,3730h-1v1h1v-1Z"/><path class="c" d="M599,3730h-1v1h1v-1Z"/><path class="c" d="M607,3730h-1v1h1v-1Z"/><path class="c" d="M605,3730h-1v1h1v-1Z"/><path class="c" d="M607,3732h-1v1h1v-1Z"/><path class="c" d="M607,3734h-1v1h1v-1Z"/><path class="c" d="M607,3736h-1v1h1v-1Z"/><path class="c" d="M599,3738h-1v1h1v-1Z"/><path class="c" d="M603,3738h-1v1h1v-1Z"/><path class="c" d="M601,3738h-1v1h1v-1Z"/><path class="c" d="M607,3738h-1v1h1v-1Z"/><path class="c" d="M605,3738h-1v1h1v-1Z"/><path class="c" d="M595,3730h-1v1h1v-1Z"/><path class="c" d="M593,3730h-1v1h1v-1Z"/><path class="c" d="M591,3730h-1v1h1v-1Z"/><path class="c" d="M597,3730h-1v1h1v-1Z"/><path class="c" d="M581,3730h-1v1h1v-1Z"/><path class="c" d="M581,3738h-1v1h1v-1Z"/><path class="c" d="M591,3738h-1v1h1v-1Z"/><path class="c" d="M595,3738h-1v1h1v-1Z"/><path class="c" d="M593,3738h-1v1h1v-1Z"/><path class="c" d="M597,3738h-1v1h1v-1Z"/><path class="c" d="M587,3730h-1v1h1v-1Z"/><path class="c" d="M585,3730h-1v1h1v-1Z"/><path class="c" d="M583,3730h-1v1h1v-1Z"/><path class="c" d="M589,3730h-1v1h1v-1Z"/><path class="c" d="M581,3732h-1v1h1v-1Z"/><path class="c" d="M581,3734h-1v1h1v-1Z"/><path class="c" d="M581,3736h-1v1h1v-1Z"/><path class="c" d="M583,3738h-1v1h1v-1Z"/><path class="c" d="M587,3738h-1v1h1v-1Z"/><path class="c" d="M585,3738h-1v1h1v-1Z"/><path class="c" d="M589,3738h-1v1h1v-1Z"/><rect class="e" width="27" height="9" transform="translate(580 3719)"/><path class="c" d="M606,3720v7H581v-7h25m1-1H580v9h27v-9Z"/></g></svg>