<svg xmlns="http://www.w3.org/2000/svg" xmlns:xlink="http://www.w3.org/1999/xlink" width="36" height="36" viewBox="0 0 36 36"><defs><style>.a{fill:none;}.b{fill:#fff;}.c{fill:#514334;}.d{fill:url(#a);}.e{fill:#ffd56c;}</style><linearGradient id="a" y1="0.5" x2="1" y2="0.5" gradientUnits="objectBoundingBox"><stop offset="0" stop-color="#fff"/><stop offset="0.15" stop-color="#fffefa"/><stop offset="0.32" stop-color="#fffaed"/><stop offset="0.49" stop-color="#fff4d7"/><stop offset="0.67" stop-color="#ffebb8"/><stop offset="0.86" stop-color="#ffdf90"/><stop offset="1" stop-color="#ffd56c"/></linearGradient></defs><g transform="translate(-722 -3664)"><rect class="a" width="36" height="36" transform="translate(722 3664)"/><path class="b" d="M722,3691.312v-21.624a.7.7,0,0,1,.705-.688h29.59a.7.7,0,0,1,.705.688v21.624a.7.7,0,0,1-.705.688h-29.59A.7.7,0,0,1,722,3691.312Z"/><path class="c" d="M752,3670v21H723v-21h29m.295-1h-29.59a.7.7,0,0,0-.705.688v21.624a.7.7,0,0,0,.705.688h29.59a.7.7,0,0,0,.705-.688v-21.624a.7.7,0,0,0-.705-.688Z"/><path class="d" d="M.97,0H30.03A.97.97,0,0,1,31,.97V5a0,0,0,0,1,0,0H0A0,0,0,0,1,0,5V.97A.97.97,0,0,1,.97,0Z" transform="translate(722 3665)"/><path class="c" d="M752,3666v3H722.993l-.023-3H752m.03-1H722.97a.974.974,0,0,0-.97.97V3670h31v-4.03a.974.974,0,0,0-.97-.97Z"/><circle class="c" cx="0.5" cy="0.5" r="0.5" transform="translate(725 3667)"/><circle class="c" cx="0.5" cy="0.5" r="0.5" transform="translate(727 3667)"/><circle class="c" cx="0.5" cy="0.5" r="0.5" transform="translate(729 3667)"/><path class="b" d="M738.466,3685.177q-1.66-2.787-3.319-5.574a.162.162,0,0,0-.3,0q-1.66,2.787-3.319,5.574a.2.2,0,0,0,.016.239.15.15,0,0,0,.135.084h6.638A.221.221,0,0,0,738.466,3685.177Z"/><path class="c" d="M738.315,3686h-6.638a.645.645,0,0,1-.544-.3.693.693,0,0,1-.037-.782l3.319-5.575a.681.681,0,0,1,1.161,0l3.319,5.574a.723.723,0,0,1,0,.725A.679.679,0,0,1,738.315,3686Zm-6.1-1h5.565L735,3680.326Z"/><path class="e" d="M728.515,3685.5h6.969L732,3680.5Z"/><path class="c" d="M728.515,3686h6.97a.5.5,0,0,0,.431-.752l-3.484-5.009a.509.509,0,0,0-.864,0l-3.484,5.009c-.369.53.5,1.03.863.505l3.485-5.009h-.864l3.485,5.009.432-.753h-6.97A.5.5,0,0,0,728.515,3686Z"/><circle class="b" cx="0.5" cy="0.5" r="0.5" transform="translate(730.5 3676.5)"/><path class="c" d="M731,3678a1,1,0,1,1,1-1A1,1,0,0,1,731,3678Zm0-1h0Z"/><rect class="c" width="1" height="1" transform="translate(732 3687)"/><rect class="c" width="1" height="1" transform="translate(734 3687)"/><rect class="c" width="1" height="1" transform="translate(726 3673)"/><rect class="c" width="1" height="1" transform="translate(729 3687) rotate(90)"/><rect class="c" width="1" height="1" transform="translate(727 3687) rotate(90)"/><rect class="c" width="1" height="1" transform="translate(731 3687) rotate(90)"/><rect class="c" width="1" height="1" transform="translate(726 3685)"/><rect class="c" width="1" height="1" transform="translate(726 3683)"/><rect class="c" width="1" height="1" transform="translate(726 3681)"/><rect class="c" width="1" height="1" transform="translate(728 3673)"/><rect class="c" width="1" height="1" transform="translate(726 3679)"/><rect class="c" width="1" height="1" transform="translate(727 3677) rotate(90)"/><rect class="c" width="1" height="1" transform="translate(727 3675) rotate(90)"/><rect class="c" width="1" height="1" transform="translate(740 3673)"/><rect class="c" width="1" height="1" transform="translate(742 3673)"/><rect class="c" width="1" height="1" transform="translate(738 3673)"/><rect class="c" width="1" height="1" transform="translate(746 3673)"/><rect class="c" width="1" height="1" transform="translate(748 3673)"/><rect class="c" width="1" height="1" transform="translate(744 3673)"/><rect class="c" width="1" height="1" transform="translate(733 3673) rotate(90)"/><rect class="c" width="1" height="1" transform="translate(735 3673) rotate(90)"/><rect class="c" width="1" height="1" transform="translate(730 3673)"/><rect class="c" width="1" height="1" transform="translate(748 3677)"/><rect class="c" width="1" height="1" transform="translate(748 3675)"/><rect class="c" width="1" height="1" transform="translate(748 3679)"/><rect class="c" width="1" height="1" transform="translate(736 3687)"/><rect class="c" width="1" height="1" transform="translate(736 3673)"/><rect class="d" width="18" height="18" rx="9" transform="translate(740 3681)"/><path class="c" d="M749,3682a8,8,0,1,1-8,8,8.009,8.009,0,0,1,8-8m0-1a9,9,0,1,0,9,9,9,9,0,0,0-9-9Z"/><path class="c" d="M753.65,3693.247a1.409,1.409,0,0,0-.339-.36,3.881,3.881,0,0,0-1.44-.509,5.089,5.089,0,0,1-.548-.156,2.23,2.23,0,0,1-.963-.632c-.043-.048-.085-.1-.125-.151a.319.319,0,0,1-.043-.086c-.052-.149-.076-.505.408-1.128l.026-.034c.03-.037.057-.076.084-.115a4.654,4.654,0,0,0,.5-3.265,2.049,2.049,0,0,0-.5-1.044,1.979,1.979,0,0,0-.171-.172,2.3,2.3,0,0,0-3.088,0c-.057.052-.112.106-.164.163a2.063,2.063,0,0,0-.506,1.053,4.641,4.641,0,0,0,.512,3.276c.025.035.049.07.075.1.01.012.017.023.026.034.485.623.46.979.409,1.128a.288.288,0,0,1-.043.086c-.038.052-.079.1-.12.145a2.225,2.225,0,0,1-.962.636,5.216,5.216,0,0,1-.555.158,3.894,3.894,0,0,0-1.44.509,1.423,1.423,0,0,0-.338.36,2.865,2.865,0,0,0-.328,1.753h9.956A2.865,2.865,0,0,0,753.65,3693.247Z"/></g></svg>